<svg width="23" height="21" viewBox="0 0 23 21" fill="none" xmlns="http://www.w3.org/2000/svg">
<path d="M6.41279 5.6972H4.97702C3.45087 5.6972 2.68844 5.6972 2.14563 6.00855C1.6693 6.28178 1.30314 6.71337 1.11194 7.22814C0.894196 7.81438 1.01953 8.5664 1.27011 10.0699L1.27064 10.0727L2.36665 16.6488C2.55258 17.7643 2.64615 18.3224 2.92449 18.7409C3.16985 19.1099 3.51427 19.4016 3.91855 19.5829C4.37718 19.7887 4.94241 19.7888 6.07334 19.7888H16.1469C17.2779 19.7888 17.8427 19.7887 18.3014 19.5829C18.7056 19.4016 19.0503 19.1099 19.2957 18.7409C19.574 18.3224 19.6671 17.7643 19.853 16.6488L20.949 10.0727L20.9501 10.0681C21.2005 8.56581 21.3258 7.81416 21.1081 7.22814C20.9169 6.71337 20.5516 6.28178 20.0753 6.00855C19.5325 5.6972 18.7688 5.6972 17.2426 5.6972H15.8072M6.41279 5.6972H15.8072M6.41279 5.6972C6.41279 3.10301 8.51579 1 11.11 1C13.7042 1 15.8072 3.10301 15.8072 5.6972" stroke="black" stroke-width="2" stroke-linecap="round" stroke-linejoin="round"/>
</svg>
