<svg width="27" height="27" viewBox="0 0 27 27" fill="none" xmlns="http://www.w3.org/2000/svg">
<path d="M7.24992 13.4998H13.4998M13.4998 13.4998H19.7497M13.4998 13.4998V19.7497M13.4998 13.4998V7.24992M1 21V6.00024C1 4.2501 1 3.37438 1.3406 2.70591C1.6402 2.11791 2.11791 1.6402 2.70591 1.3406C3.37438 1 4.2501 1 6.00024 1H21C22.7502 1 23.6248 1 24.2933 1.3406C24.8813 1.6402 25.3598 2.11791 25.6594 2.70591C26 3.37438 26 4.24945 26 5.99959V20.9994C26 22.7496 26 23.6246 25.6594 24.2931C25.3598 24.8811 24.8813 25.3598 24.2933 25.6594C23.6254 25.9997 22.752 25.9997 21.0053 25.9997H5.9951C4.24838 25.9997 3.37372 25.9997 2.70591 25.6594C2.11791 25.3598 1.6402 24.8813 1.3406 24.2933C1 23.6248 1 22.7502 1 21Z" stroke="#E4002B" stroke-width="2" stroke-linecap="round" stroke-linejoin="round"/>
</svg>
