<svg width="25" height="25" viewBox="0 0 25 25" fill="none" xmlns="http://www.w3.org/2000/svg">
<g clip-path="url(#clip0_81_106)">
<path d="M21.4105 7.29521V10.6975C21.4105 10.6975 18.47 10.8578 16.1421 8.91626V16.7105C16.1421 17.0121 16.1139 17.3043 16.0573 17.6058C15.7746 18.9913 14.5965 22.4973 9.95951 22.9025C9.7239 22.9214 9.48828 22.9214 9.25266 22.9025C7.9332 22.7894 3.98425 22.0543 3.20199 17.3043C3.10775 16.7576 3.09832 16.2016 3.18314 15.6549C3.41876 14.0339 5.09636 9.57599 10.6098 10.1132V13.4967C10.6098 13.4967 8.24422 12.9312 7.0944 14.7596C6.49122 15.7209 6.42525 16.9273 6.93418 17.9357C7.32059 18.7085 8.10285 19.5002 9.62965 19.5568C10.2705 19.5568 12.3063 19.3306 12.7587 16.8142V2.08334H16.1421C16.1421 2.08334 16.1421 6.96535 21.42 7.29521H21.4105Z" fill="black"/>
</g>
<defs>
<clipPath id="clip0_81_106">
<rect width="25" height="25" fill="white"/>
</clipPath>
</defs>
</svg>
