<svg width="25" height="25" viewBox="0 0 25 25" fill="none" xmlns="http://www.w3.org/2000/svg">
<path d="M12.5 9.20157C10.717 9.20157 9.20142 10.7171 9.20142 12.5002C9.20142 14.2832 10.717 15.7988 12.5 15.7988C14.2831 15.7988 15.7986 14.2832 15.7986 12.5002C15.7986 10.7171 14.2831 9.20157 12.5 9.20157Z" fill="black"/>
<path d="M16.7282 2.60416H8.36176C5.12313 2.60416 2.60419 5.1231 2.60419 8.27177V16.6382C2.60419 19.8769 5.12313 22.3958 8.36176 22.3958H16.7282C19.8769 22.3958 22.3959 19.8769 22.3959 16.6382V8.27177C22.3959 5.1231 19.8769 2.60416 16.7282 2.60416ZM12.5 17.7178C9.62123 17.7178 7.37218 15.3788 7.37218 12.59C7.37218 9.80113 9.62123 7.37215 12.5 7.37215C15.3788 7.37215 17.6279 9.71116 17.6279 12.5C17.6279 15.2888 15.3788 17.7178 12.5 17.7178ZM17.8078 8.45169C17.1781 8.45169 16.6383 7.91192 16.6383 7.28219C16.6383 6.65245 17.1781 6.11268 17.8078 6.11268C18.4375 6.11268 18.9773 6.65245 18.9773 7.28219C18.9773 7.91192 18.4375 8.45169 17.8078 8.45169Z" fill="black"/>
</svg>
