<svg width="25" height="25" viewBox="0 0 25 25" fill="none" xmlns="http://www.w3.org/2000/svg">
<path fill-rule="evenodd" clip-rule="evenodd" d="M21.456 4.91219C22.4424 5.17495 23.2185 5.95514 23.4813 6.94958C23.9583 8.74848 23.9543 12.4999 23.9543 12.4999C23.9543 12.4999 23.9543 16.2513 23.4772 18.0502C23.2145 19.0406 22.4383 19.8208 21.452 20.0876C19.6652 20.5686 12.4979 20.5686 12.4979 20.5686C12.4979 20.5686 5.33067 20.5686 3.5439 20.0876C2.55755 19.8248 1.78139 19.0446 1.51864 18.0502C1.04163 16.2513 1.04163 12.4999 1.04163 12.4999C1.04163 12.4999 1.04163 8.74848 1.52268 6.94554C1.78544 5.95514 2.56159 5.17495 3.54795 4.90815C5.33471 4.42709 12.502 4.42709 12.502 4.42709C12.502 4.42709 19.6652 4.42709 21.456 4.91219ZM10.1574 9.09212V15.9077L16.1483 12.4999L10.1574 9.09212Z" fill="black"/>
</svg>
