<svg width="22" height="22" viewBox="0 0 22 22" fill="none" xmlns="http://www.w3.org/2000/svg">
<path d="M16.7963 19.147C15.3721 17.5565 13.303 16.5556 11 16.5556C8.69705 16.5556 6.62769 17.5565 5.20356 19.147M11 21C5.47715 21 1 16.5228 1 11C1 5.47715 5.47715 1 11 1C16.5228 1 21 5.47715 21 11C21 16.5228 16.5228 21 11 21ZM11 13.2222C9.15905 13.2222 7.66667 11.7298 7.66667 9.88889C7.66667 8.04794 9.15905 6.55556 11 6.55556C12.841 6.55556 14.3333 8.04794 14.3333 9.88889C14.3333 11.7298 12.841 13.2222 11 13.2222Z" stroke="black" stroke-width="2" stroke-linecap="round" stroke-linejoin="round"/>
</svg>
